<svg id="Layer_1" data-name="Layer 1" xmlns="http://www.w3.org/2000/svg" xmlns:xlink="http://www.w3.org/1999/xlink" viewBox="0 0 247.65 254.76"><defs><style>.cls-1{fill:none;}.cls-2{fill:#fdf9ee;}.cls-3{clip-path:url(#clip-path);}</style><clipPath id="clip-path"><rect class="cls-1" x="93.89" y="99.9" width="64.97" height="64.97"/></clipPath></defs><path class="cls-2" d="M126.35,125.17a7.19,7.19,0,1,0,7.19,7.19A7.21,7.21,0,0,0,126.35,125.17Z"/><path class="cls-2" d="M136,114.71H116.68a8,8,0,0,0-8,8V142a8,8,0,0,0,8,8H136a8,8,0,0,0,8-8V122.69A8,8,0,0,0,136,114.71Zm-9.67,28.47a10.85,10.85,0,1,1,10.85-10.85A10.85,10.85,0,0,1,126.35,143.18ZM138,123.31a2.62,2.62,0,1,1,2.61-2.61A2.59,2.59,0,0,1,138,123.31Z"/><g class="cls-3"><path class="cls-2" d="M126.35,99.9a32.46,32.46,0,1,0,32.46,32.46A32.46,32.46,0,0,0,126.35,99.9ZM147.62,142A11.65,11.65,0,0,1,136,153.66H116.68A11.66,11.66,0,0,1,105,142V122.69a11.66,11.66,0,0,1,11.64-11.63H136a11.66,11.66,0,0,1,11.63,11.63V142Z"/></g></svg>