<svg id="Layer_1" data-name="Layer 1" xmlns="http://www.w3.org/2000/svg" xmlns:xlink="http://www.w3.org/1999/xlink" viewBox="0 0 247.65 254.76"><defs><style>.cls-1{fill:none;}.cls-2{clip-path:url(#clip-path);}.cls-3{fill:#9f7c50;}.cls-4{clip-path:url(#clip-path-2);}</style><clipPath id="clip-path"><rect class="cls-1" x="24.92" y="112.73" width="25.12" height="38.98"/></clipPath><clipPath id="clip-path-2"><rect class="cls-1" x="51.37" y="112.73" width="25.33" height="38.98"/></clipPath></defs><g class="cls-2"><path class="cls-3" d="M38.29,129.54a10.81,10.81,0,0,0-6.51,2.17c.18-5.66,4.55-11.32,13.19-17l-1.28-2Q24.93,124.4,24.92,138.32c0,4.26,1.16,7.61,3.49,10A11.66,11.66,0,0,0,37.22,152a12.45,12.45,0,0,0,8.6-2.92,9.08,9.08,0,0,0,3.27-7s0-.06,0-.09a10.45,10.45,0,0,0,.12-1.49A10.91,10.91,0,0,0,38.29,129.54Z"/></g><g class="cls-4"><path class="cls-3" d="M73.56,148c.14-.16.31-.31.44-.49a10.9,10.9,0,0,0-15.52-15.22c0-.07,0-.12,0-.2q0-8.66,13.22-17.34l-1.28-2Q51.65,124.4,51.65,138.32q0,6.41,3.48,10A11.69,11.69,0,0,0,63.94,152a12.44,12.44,0,0,0,8.61-2.92c.3-.27.54-.57.81-.86Z"/></g></svg>